<mxfile host="app.diagrams.net" agent="Mozilla/5.0 (Windows NT 10.0; Win64; x64) AppleWebKit/537.36 (KHTML, like Gecko) Chrome/133.0.0.0 Safari/537.36" version="26.0.16">
  <diagram name="Page-1" id="7NI0cN8WIBlKeW79pLxh">
    <mxGraphModel dx="1252" dy="1802" grid="1" gridSize="10" guides="1" tooltips="1" connect="1" arrows="1" fold="1" page="1" pageScale="1" pageWidth="827" pageHeight="1169" math="0" shadow="0">
      <root>
        <mxCell id="0" />
        <mxCell id="1" parent="0" />
        <mxCell id="XKCDAz_21dTOhUU2t3bO-3" value="" style="edgeStyle=orthogonalEdgeStyle;rounded=0;orthogonalLoop=1;jettySize=auto;html=1;" parent="1" source="XKCDAz_21dTOhUU2t3bO-1" target="XKCDAz_21dTOhUU2t3bO-2" edge="1">
          <mxGeometry relative="1" as="geometry" />
        </mxCell>
        <mxCell id="XKCDAz_21dTOhUU2t3bO-1" value="&lt;div style=&quot;color: #383a42;background-color: #f5f5f5;font-family: Consolas, &#39;Courier New&#39;, monospace;font-weight: normal;font-size: 14px;line-height: 19px;white-space: pre;&quot;&gt;&lt;div&gt;&lt;span style=&quot;color: #4078f2;&quot;&gt;rts_av_isp_init&lt;/span&gt;&lt;/div&gt;&lt;/div&gt;" style="text;whiteSpace=wrap;html=1;" parent="1" vertex="1">
          <mxGeometry x="190" y="40" width="130" height="30" as="geometry" />
        </mxCell>
        <mxCell id="XKCDAz_21dTOhUU2t3bO-6" style="edgeStyle=orthogonalEdgeStyle;rounded=0;orthogonalLoop=1;jettySize=auto;html=1;exitX=1;exitY=0.5;exitDx=0;exitDy=0;entryX=0;entryY=0.5;entryDx=0;entryDy=0;" parent="1" source="XKCDAz_21dTOhUU2t3bO-2" target="XKCDAz_21dTOhUU2t3bO-4" edge="1">
          <mxGeometry relative="1" as="geometry" />
        </mxCell>
        <mxCell id="XKCDAz_21dTOhUU2t3bO-7" style="edgeStyle=orthogonalEdgeStyle;rounded=0;orthogonalLoop=1;jettySize=auto;html=1;exitX=1;exitY=0.5;exitDx=0;exitDy=0;entryX=0;entryY=0.5;entryDx=0;entryDy=0;" parent="1" source="XKCDAz_21dTOhUU2t3bO-2" target="XKCDAz_21dTOhUU2t3bO-5" edge="1">
          <mxGeometry relative="1" as="geometry" />
        </mxCell>
        <mxCell id="zwHW3op6i-iEvnCv9LnT-24" style="edgeStyle=orthogonalEdgeStyle;rounded=0;orthogonalLoop=1;jettySize=auto;html=1;exitX=1;exitY=0.5;exitDx=0;exitDy=0;entryX=0;entryY=0.5;entryDx=0;entryDy=0;" parent="1" source="XKCDAz_21dTOhUU2t3bO-2" target="zwHW3op6i-iEvnCv9LnT-23" edge="1">
          <mxGeometry relative="1" as="geometry" />
        </mxCell>
        <mxCell id="zwHW3op6i-iEvnCv9LnT-26" style="edgeStyle=orthogonalEdgeStyle;rounded=0;orthogonalLoop=1;jettySize=auto;html=1;exitX=1;exitY=0.5;exitDx=0;exitDy=0;entryX=0;entryY=0.5;entryDx=0;entryDy=0;" parent="1" source="XKCDAz_21dTOhUU2t3bO-2" target="zwHW3op6i-iEvnCv9LnT-25" edge="1">
          <mxGeometry relative="1" as="geometry" />
        </mxCell>
        <mxCell id="zwHW3op6i-iEvnCv9LnT-28" style="edgeStyle=orthogonalEdgeStyle;rounded=0;orthogonalLoop=1;jettySize=auto;html=1;exitX=1;exitY=0.5;exitDx=0;exitDy=0;entryX=0;entryY=0.5;entryDx=0;entryDy=0;" parent="1" source="XKCDAz_21dTOhUU2t3bO-2" target="zwHW3op6i-iEvnCv9LnT-27" edge="1">
          <mxGeometry relative="1" as="geometry" />
        </mxCell>
        <mxCell id="zwHW3op6i-iEvnCv9LnT-30" style="edgeStyle=orthogonalEdgeStyle;rounded=0;orthogonalLoop=1;jettySize=auto;html=1;exitX=1;exitY=0.5;exitDx=0;exitDy=0;entryX=0;entryY=0.5;entryDx=0;entryDy=0;" parent="1" source="XKCDAz_21dTOhUU2t3bO-2" target="zwHW3op6i-iEvnCv9LnT-29" edge="1">
          <mxGeometry relative="1" as="geometry" />
        </mxCell>
        <mxCell id="XKCDAz_21dTOhUU2t3bO-2" value="&lt;div style=&quot;color: #383a42;background-color: #f5f5f5;font-family: Consolas, &#39;Courier New&#39;, monospace;font-weight: normal;font-size: 14px;line-height: 19px;white-space: pre;&quot;&gt;&lt;div&gt;&lt;span style=&quot;color: #4078f2;&quot;&gt;isp_top_init&lt;/span&gt;&lt;/div&gt;&lt;/div&gt;" style="text;whiteSpace=wrap;html=1;" parent="1" vertex="1">
          <mxGeometry x="340" y="40" width="100" height="30" as="geometry" />
        </mxCell>
        <mxCell id="XKCDAz_21dTOhUU2t3bO-9" value="" style="edgeStyle=orthogonalEdgeStyle;rounded=0;orthogonalLoop=1;jettySize=auto;html=1;" parent="1" source="XKCDAz_21dTOhUU2t3bO-4" target="XKCDAz_21dTOhUU2t3bO-8" edge="1">
          <mxGeometry relative="1" as="geometry" />
        </mxCell>
        <mxCell id="XKCDAz_21dTOhUU2t3bO-4" value="&lt;div style=&quot;color: #383a42;background-color: #f5f5f5;font-family: Consolas, &#39;Courier New&#39;, monospace;font-weight: normal;font-size: 14px;line-height: 19px;white-space: pre;&quot;&gt;&lt;div&gt;&lt;span style=&quot;color: #4078f2;&quot;&gt;isp_driver_init&lt;/span&gt;&lt;/div&gt;&lt;/div&gt;" style="text;whiteSpace=wrap;html=1;" parent="1" vertex="1">
          <mxGeometry x="480" y="-50" width="130" height="30" as="geometry" />
        </mxCell>
        <mxCell id="zwHW3op6i-iEvnCv9LnT-2" style="edgeStyle=orthogonalEdgeStyle;rounded=0;orthogonalLoop=1;jettySize=auto;html=1;exitX=1;exitY=0.5;exitDx=0;exitDy=0;entryX=0;entryY=0.5;entryDx=0;entryDy=0;" parent="1" source="XKCDAz_21dTOhUU2t3bO-5" target="zwHW3op6i-iEvnCv9LnT-1" edge="1">
          <mxGeometry relative="1" as="geometry" />
        </mxCell>
        <mxCell id="zwHW3op6i-iEvnCv9LnT-4" style="edgeStyle=orthogonalEdgeStyle;rounded=0;orthogonalLoop=1;jettySize=auto;html=1;exitX=1;exitY=0.5;exitDx=0;exitDy=0;entryX=0;entryY=0.5;entryDx=0;entryDy=0;" parent="1" source="XKCDAz_21dTOhUU2t3bO-5" target="zwHW3op6i-iEvnCv9LnT-3" edge="1">
          <mxGeometry relative="1" as="geometry" />
        </mxCell>
        <mxCell id="zwHW3op6i-iEvnCv9LnT-6" style="edgeStyle=orthogonalEdgeStyle;rounded=0;orthogonalLoop=1;jettySize=auto;html=1;exitX=1;exitY=0.5;exitDx=0;exitDy=0;entryX=0;entryY=0.5;entryDx=0;entryDy=0;" parent="1" source="XKCDAz_21dTOhUU2t3bO-5" target="zwHW3op6i-iEvnCv9LnT-5" edge="1">
          <mxGeometry relative="1" as="geometry" />
        </mxCell>
        <mxCell id="XKCDAz_21dTOhUU2t3bO-5" value="&lt;div style=&quot;color: #383a42;background-color: #f5f5f5;font-family: Consolas, &#39;Courier New&#39;, monospace;font-weight: normal;font-size: 14px;line-height: 19px;white-space: pre;&quot;&gt;&lt;div&gt;&lt;span style=&quot;color: #4078f2;&quot;&gt;isp_top_core_init&lt;/span&gt;&lt;/div&gt;&lt;/div&gt;" style="text;whiteSpace=wrap;html=1;" parent="1" vertex="1">
          <mxGeometry x="480" y="70" width="140" height="30" as="geometry" />
        </mxCell>
        <mxCell id="XKCDAz_21dTOhUU2t3bO-8" value="&lt;div style=&quot;color: #383a42;background-color: #f5f5f5;font-family: Consolas, &#39;Courier New&#39;, monospace;font-weight: normal;font-size: 14px;line-height: 19px;white-space: pre;&quot;&gt;&lt;div&gt;&lt;span style=&quot;color: #0184bc;&quot;&gt;open&lt;/span&gt;&lt;span style=&quot;color: #383a42;&quot;&gt;(&lt;/span&gt;&lt;span style=&quot;color: #50a14f;&quot;&gt;&quot;/dev/rtsisp&quot;&lt;/span&gt;&lt;span style=&quot;color: #383a42;&quot;&gt;, &lt;/span&gt;&lt;span style=&quot;color: #aca600;&quot;&gt;O_RDWR&lt;/span&gt;&lt;span style=&quot;color: #383a42;&quot;&gt; &lt;/span&gt;&lt;span style=&quot;color: #383a42;&quot;&gt;|&lt;/span&gt;&lt;span style=&quot;color: #383a42;&quot;&gt; &lt;/span&gt;&lt;span style=&quot;color: #aca600;&quot;&gt;O_NONBLOCK&lt;/span&gt;&lt;span style=&quot;color: #383a42;&quot;&gt;);&lt;/span&gt;&lt;/div&gt;&lt;/div&gt;" style="text;whiteSpace=wrap;html=1;" parent="1" vertex="1">
          <mxGeometry x="640" y="-50" width="330" height="30" as="geometry" />
        </mxCell>
        <mxCell id="ht368XArrU7g4tb2RllO-55" style="edgeStyle=orthogonalEdgeStyle;rounded=0;orthogonalLoop=1;jettySize=auto;html=1;exitX=1;exitY=0.5;exitDx=0;exitDy=0;entryX=0;entryY=0.5;entryDx=0;entryDy=0;" edge="1" parent="1" source="zwHW3op6i-iEvnCv9LnT-1" target="ht368XArrU7g4tb2RllO-53">
          <mxGeometry relative="1" as="geometry" />
        </mxCell>
        <mxCell id="ht368XArrU7g4tb2RllO-56" style="edgeStyle=orthogonalEdgeStyle;rounded=0;orthogonalLoop=1;jettySize=auto;html=1;exitX=1;exitY=0.5;exitDx=0;exitDy=0;entryX=0;entryY=0.5;entryDx=0;entryDy=0;" edge="1" parent="1" source="zwHW3op6i-iEvnCv9LnT-1" target="ht368XArrU7g4tb2RllO-54">
          <mxGeometry relative="1" as="geometry" />
        </mxCell>
        <mxCell id="zwHW3op6i-iEvnCv9LnT-1" value="&lt;div style=&quot;color: #383a42;background-color: #f5f5f5;font-family: Consolas, &#39;Courier New&#39;, monospace;font-weight: normal;font-size: 14px;line-height: 19px;white-space: pre;&quot;&gt;&lt;div&gt;&lt;span style=&quot;color: #4078f2;&quot;&gt;isp_core_create&lt;/span&gt;&lt;/div&gt;&lt;/div&gt;" style="text;whiteSpace=wrap;html=1;" parent="1" vertex="1">
          <mxGeometry x="660" y="20" width="120" height="30" as="geometry" />
        </mxCell>
        <mxCell id="zwHW3op6i-iEvnCv9LnT-12" value="" style="edgeStyle=orthogonalEdgeStyle;rounded=0;orthogonalLoop=1;jettySize=auto;html=1;" parent="1" source="zwHW3op6i-iEvnCv9LnT-3" target="zwHW3op6i-iEvnCv9LnT-11" edge="1">
          <mxGeometry relative="1" as="geometry" />
        </mxCell>
        <mxCell id="zwHW3op6i-iEvnCv9LnT-3" value="&lt;div style=&quot;color: #383a42;background-color: #f5f5f5;font-family: Consolas, &#39;Courier New&#39;, monospace;font-weight: normal;font-size: 14px;line-height: 19px;white-space: pre;&quot;&gt;&lt;div&gt;&lt;span style=&quot;color: #4078f2;&quot;&gt;isp_register_all_modules&lt;/span&gt;&lt;/div&gt;&lt;/div&gt;" style="text;whiteSpace=wrap;html=1;" parent="1" vertex="1">
          <mxGeometry x="660" y="100" width="190" height="30" as="geometry" />
        </mxCell>
        <mxCell id="zwHW3op6i-iEvnCv9LnT-20" value="" style="edgeStyle=orthogonalEdgeStyle;rounded=0;orthogonalLoop=1;jettySize=auto;html=1;" parent="1" source="zwHW3op6i-iEvnCv9LnT-5" target="zwHW3op6i-iEvnCv9LnT-19" edge="1">
          <mxGeometry relative="1" as="geometry" />
        </mxCell>
        <mxCell id="zwHW3op6i-iEvnCv9LnT-22" style="edgeStyle=orthogonalEdgeStyle;rounded=0;orthogonalLoop=1;jettySize=auto;html=1;exitX=1;exitY=0.5;exitDx=0;exitDy=0;entryX=0;entryY=0.5;entryDx=0;entryDy=0;" parent="1" source="zwHW3op6i-iEvnCv9LnT-5" target="zwHW3op6i-iEvnCv9LnT-21" edge="1">
          <mxGeometry relative="1" as="geometry" />
        </mxCell>
        <mxCell id="zwHW3op6i-iEvnCv9LnT-5" value="&lt;div style=&quot;color: #383a42;background-color: #f5f5f5;font-family: Consolas, &#39;Courier New&#39;, monospace;font-weight: normal;font-size: 14px;line-height: 19px;white-space: pre;&quot;&gt;&lt;div&gt;&lt;span style=&quot;color: #4078f2;&quot;&gt;isp_core_init&lt;/span&gt;&lt;/div&gt;&lt;/div&gt;" style="text;whiteSpace=wrap;html=1;" parent="1" vertex="1">
          <mxGeometry x="660" y="140" width="110" height="30" as="geometry" />
        </mxCell>
        <mxCell id="zwHW3op6i-iEvnCv9LnT-7" value="&lt;font style=&quot;color: rgb(179, 179, 179);&quot;&gt;isp_top.c&lt;/font&gt;" style="text;html=1;align=center;verticalAlign=middle;whiteSpace=wrap;rounded=0;" parent="1" vertex="1">
          <mxGeometry x="490" y="50" width="60" height="30" as="geometry" />
        </mxCell>
        <mxCell id="zwHW3op6i-iEvnCv9LnT-8" value="&lt;font style=&quot;color: rgb(179, 179, 179);&quot;&gt;isp_driver.c&lt;/font&gt;" style="text;html=1;align=center;verticalAlign=middle;whiteSpace=wrap;rounded=0;" parent="1" vertex="1">
          <mxGeometry x="480" y="-80" width="60" height="30" as="geometry" />
        </mxCell>
        <mxCell id="zwHW3op6i-iEvnCv9LnT-10" value="&lt;font color=&quot;#b3b3b3&quot;&gt;gen_modules_file.cmake&lt;/font&gt;" style="text;html=1;align=center;verticalAlign=middle;whiteSpace=wrap;rounded=0;" parent="1" vertex="1">
          <mxGeometry x="650" y="80" width="160" height="30" as="geometry" />
        </mxCell>
        <mxCell id="zwHW3op6i-iEvnCv9LnT-15" value="" style="edgeStyle=orthogonalEdgeStyle;rounded=0;orthogonalLoop=1;jettySize=auto;html=1;" parent="1" source="zwHW3op6i-iEvnCv9LnT-11" target="zwHW3op6i-iEvnCv9LnT-14" edge="1">
          <mxGeometry relative="1" as="geometry" />
        </mxCell>
        <mxCell id="zwHW3op6i-iEvnCv9LnT-11" value="&lt;div style=&quot;color: rgb(56, 58, 66); background-color: rgb(245, 245, 245); font-family: Consolas, &amp;quot;Courier New&amp;quot;, monospace; font-weight: normal; font-size: 14px; line-height: 19px; white-space: pre;&quot;&gt;&lt;div&gt;&lt;span style=&quot;color: rgb(64, 120, 242);&quot;&gt;isp_register_mod_xxx&lt;/span&gt;&lt;/div&gt;&lt;/div&gt;" style="text;whiteSpace=wrap;html=1;" parent="1" vertex="1">
          <mxGeometry x="870" y="100" width="160" height="30" as="geometry" />
        </mxCell>
        <mxCell id="zwHW3op6i-iEvnCv9LnT-13" value="&lt;font color=&quot;#b3b3b3&quot;&gt;isp_mod_xxx.c&lt;/font&gt;" style="text;html=1;align=center;verticalAlign=middle;whiteSpace=wrap;rounded=0;" parent="1" vertex="1">
          <mxGeometry x="870" y="80" width="100" height="30" as="geometry" />
        </mxCell>
        <mxCell id="ht368XArrU7g4tb2RllO-47" value="" style="edgeStyle=orthogonalEdgeStyle;rounded=0;orthogonalLoop=1;jettySize=auto;html=1;" edge="1" parent="1" source="zwHW3op6i-iEvnCv9LnT-14" target="ht368XArrU7g4tb2RllO-46">
          <mxGeometry relative="1" as="geometry" />
        </mxCell>
        <mxCell id="zwHW3op6i-iEvnCv9LnT-14" value="&lt;div style=&quot;color: #383a42;background-color: #f5f5f5;font-family: Consolas, &#39;Courier New&#39;, monospace;font-weight: normal;font-size: 14px;line-height: 19px;white-space: pre;&quot;&gt;&lt;div&gt;&lt;span style=&quot;color: #4078f2;&quot;&gt;isp_mod_register&lt;/span&gt;&lt;/div&gt;&lt;/div&gt;" style="text;whiteSpace=wrap;html=1;" parent="1" vertex="1">
          <mxGeometry x="1060" y="100" width="130" height="30" as="geometry" />
        </mxCell>
        <mxCell id="zwHW3op6i-iEvnCv9LnT-16" value="&lt;div style=&quot;color: rgb(56, 58, 66); background-color: rgb(245, 245, 245); font-family: Consolas, &amp;quot;Courier New&amp;quot;, monospace; font-weight: normal; line-height: 19px; white-space: pre;&quot;&gt;&lt;div style=&quot;&quot;&gt;&lt;font style=&quot;font-size: 11px;&quot;&gt;&lt;span style=&quot;color: rgb(166, 38, 164);&quot;&gt;struct&lt;/span&gt;&lt;span style=&quot;color: rgb(56, 58, 66);&quot;&gt; &lt;/span&gt;&lt;span style=&quot;color: rgb(193, 132, 1);&quot;&gt;isp_top&lt;/span&gt;&lt;span style=&quot;color: rgb(56, 58, 66);&quot;&gt; {&lt;/span&gt;&lt;/font&gt;&lt;/div&gt;&lt;div style=&quot;&quot;&gt;&lt;font style=&quot;font-size: 11px;&quot;&gt;&lt;span style=&quot;color: rgb(56, 58, 66);&quot;&gt;&amp;nbsp; &amp;nbsp; &amp;nbsp; &amp;nbsp; &lt;/span&gt;&lt;span style=&quot;color: rgb(193, 132, 1);&quot;&gt;isp_poll_t&lt;/span&gt;&lt;span style=&quot;color: rgb(56, 58, 66);&quot;&gt; &lt;/span&gt;&lt;span style=&quot;color: rgb(228, 86, 73);&quot;&gt;p&lt;/span&gt;&lt;span style=&quot;color: rgb(56, 58, 66);&quot;&gt;;&lt;/span&gt;&lt;/font&gt;&lt;/div&gt;&lt;div style=&quot;&quot;&gt;&lt;font style=&quot;font-size: 11px;&quot;&gt;&lt;span style=&quot;color: rgb(56, 58, 66);&quot;&gt;&amp;nbsp; &amp;nbsp; &amp;nbsp; &amp;nbsp; &lt;/span&gt;&lt;span style=&quot;color: rgb(193, 132, 1);&quot;&gt;isp_stream_t&lt;/span&gt;&lt;span style=&quot;color: rgb(56, 58, 66);&quot;&gt; &lt;/span&gt;&lt;span style=&quot;color: rgb(166, 38, 164);&quot;&gt;*&lt;/span&gt;&lt;span style=&quot;color: rgb(228, 86, 73);&quot;&gt;stream_uds&lt;/span&gt;&lt;span style=&quot;color: rgb(56, 58, 66);&quot;&gt;;&lt;/span&gt;&lt;/font&gt;&lt;/div&gt;&lt;font style=&quot;font-size: 11px;&quot;&gt;&lt;br&gt;&lt;/font&gt;&lt;div style=&quot;&quot;&gt;&lt;font style=&quot;font-size: 11px;&quot;&gt;&lt;span style=&quot;color: rgb(56, 58, 66);&quot;&gt;&amp;nbsp; &amp;nbsp; &amp;nbsp; &amp;nbsp; &lt;/span&gt;&lt;span style=&quot;color: rgb(193, 132, 1);&quot;&gt;isp_core_t&lt;/span&gt;&lt;span style=&quot;color: rgb(56, 58, 66);&quot;&gt; &lt;/span&gt;&lt;span style=&quot;color: rgb(228, 86, 73);&quot;&gt;core&lt;/span&gt;&lt;span style=&quot;color: rgb(56, 58, 66);&quot;&gt;[&lt;/span&gt;&lt;span style=&quot;color: rgb(228, 86, 73);&quot;&gt;_ISP_ID_NUM&lt;/span&gt;&lt;span style=&quot;color: rgb(56, 58, 66);&quot;&gt;];&lt;/span&gt;&lt;/font&gt;&lt;/div&gt;&lt;font style=&quot;font-size: 11px;&quot;&gt;&lt;br&gt;&lt;/font&gt;&lt;div style=&quot;&quot;&gt;&lt;font style=&quot;font-size: 11px;&quot;&gt;&lt;span style=&quot;color: rgb(56, 58, 66);&quot;&gt;&amp;nbsp; &amp;nbsp; &amp;nbsp; &amp;nbsp; &lt;/span&gt;&lt;span style=&quot;color: rgb(166, 38, 164);&quot;&gt;struct&lt;/span&gt;&lt;span style=&quot;color: rgb(56, 58, 66);&quot;&gt; &lt;/span&gt;&lt;span style=&quot;color: rgb(193, 132, 1);&quot;&gt;isp_algo_manager&lt;/span&gt;&lt;span style=&quot;color: rgb(56, 58, 66);&quot;&gt; &lt;/span&gt;&lt;span style=&quot;color: rgb(228, 86, 73);&quot;&gt;algom&lt;/span&gt;&lt;span style=&quot;color: rgb(56, 58, 66);&quot;&gt;;&lt;/span&gt;&lt;/font&gt;&lt;/div&gt;&lt;div style=&quot;&quot;&gt;&lt;font style=&quot;font-size: 11px;&quot;&gt;&lt;span style=&quot;color: rgb(56, 58, 66);&quot;&gt;&amp;nbsp; &amp;nbsp; &amp;nbsp; &amp;nbsp; &lt;/span&gt;&lt;span style=&quot;color: rgb(166, 38, 164);&quot;&gt;struct&lt;/span&gt;&lt;span style=&quot;color: rgb(56, 58, 66);&quot;&gt; &lt;/span&gt;&lt;span style=&quot;color: rgb(193, 132, 1);&quot;&gt;isp_sensor_manager&lt;/span&gt;&lt;span style=&quot;color: rgb(56, 58, 66);&quot;&gt; &lt;/span&gt;&lt;span style=&quot;color: rgb(228, 86, 73);&quot;&gt;snrm&lt;/span&gt;&lt;span style=&quot;color: rgb(56, 58, 66);&quot;&gt;;&lt;/span&gt;&lt;/font&gt;&lt;/div&gt;&lt;font style=&quot;font-size: 11px;&quot;&gt;&lt;br&gt;&lt;/font&gt;&lt;div style=&quot;&quot;&gt;&lt;font style=&quot;font-size: 11px;&quot;&gt;&lt;span style=&quot;color: rgb(56, 58, 66);&quot;&gt;&amp;nbsp; &amp;nbsp; &amp;nbsp; &amp;nbsp; &lt;/span&gt;&lt;span style=&quot;color: rgb(166, 38, 164);&quot;&gt;enum&lt;/span&gt;&lt;span style=&quot;color: rgb(56, 58, 66);&quot;&gt; &lt;/span&gt;&lt;span style=&quot;color: rgb(193, 132, 1);&quot;&gt;rts_isp_status&lt;/span&gt;&lt;span style=&quot;color: rgb(56, 58, 66);&quot;&gt; &lt;/span&gt;&lt;span style=&quot;color: rgb(228, 86, 73);&quot;&gt;status&lt;/span&gt;&lt;span style=&quot;color: rgb(56, 58, 66);&quot;&gt;;&lt;/span&gt;&lt;/font&gt;&lt;/div&gt;&lt;font style=&quot;font-size: 11px;&quot;&gt;&lt;br&gt;&lt;/font&gt;&lt;div style=&quot;&quot;&gt;&lt;font style=&quot;font-size: 11px;&quot;&gt;&lt;span style=&quot;color: rgb(56, 58, 66);&quot;&gt;&amp;nbsp; &amp;nbsp; &amp;nbsp; &amp;nbsp; &lt;/span&gt;&lt;span style=&quot;color: rgb(166, 38, 164);&quot;&gt;int&lt;/span&gt;&lt;span style=&quot;color: rgb(56, 58, 66);&quot;&gt; &lt;/span&gt;&lt;span style=&quot;color: rgb(228, 86, 73);&quot;&gt;pid_fd&lt;/span&gt;&lt;span style=&quot;color: rgb(56, 58, 66);&quot;&gt;;&lt;/span&gt;&lt;/font&gt;&lt;/div&gt;&lt;div style=&quot;&quot;&gt;&lt;span style=&quot;color: rgb(56, 58, 66);&quot;&gt;&lt;font style=&quot;font-size: 11px;&quot;&gt;};&lt;/font&gt;&lt;/span&gt;&lt;/div&gt;&lt;/div&gt;" style="text;whiteSpace=wrap;html=1;" parent="1" vertex="1">
          <mxGeometry x="290" y="-440" width="250" height="260" as="geometry" />
        </mxCell>
        <mxCell id="zwHW3op6i-iEvnCv9LnT-17" value="&lt;div style=&quot;color: rgb(56, 58, 66); background-color: rgb(245, 245, 245); font-family: Consolas, &amp;quot;Courier New&amp;quot;, monospace; font-weight: normal; line-height: 19px; white-space: pre;&quot;&gt;&lt;div style=&quot;&quot;&gt;&lt;font style=&quot;font-size: 11px;&quot;&gt;&lt;span style=&quot;color: rgb(166, 38, 164);&quot;&gt;struct&lt;/span&gt;&lt;span style=&quot;color: rgb(56, 58, 66);&quot;&gt; &lt;/span&gt;&lt;span style=&quot;color: rgb(193, 132, 1);&quot;&gt;isp_core&lt;/span&gt;&lt;span style=&quot;color: rgb(56, 58, 66);&quot;&gt; {&lt;/span&gt;&lt;/font&gt;&lt;/div&gt;&lt;div style=&quot;&quot;&gt;&lt;font style=&quot;font-size: 11px;&quot;&gt;&lt;span style=&quot;color: rgb(56, 58, 66);&quot;&gt;&amp;nbsp; &amp;nbsp; &amp;nbsp; &amp;nbsp; &lt;/span&gt;&lt;span style=&quot;color: rgb(166, 38, 164);&quot;&gt;struct&lt;/span&gt;&lt;span style=&quot;color: rgb(56, 58, 66);&quot;&gt; &lt;/span&gt;&lt;span style=&quot;color: rgb(193, 132, 1);&quot;&gt;isp_mod_hash_table&lt;/span&gt;&lt;span style=&quot;color: rgb(56, 58, 66);&quot;&gt; &lt;/span&gt;&lt;span style=&quot;color: rgb(228, 86, 73);&quot;&gt;hash&lt;/span&gt;&lt;span style=&quot;color: rgb(56, 58, 66);&quot;&gt;;&lt;/span&gt;&lt;/font&gt;&lt;/div&gt;&lt;div style=&quot;&quot;&gt;&lt;font style=&quot;font-size: 11px;&quot;&gt;&lt;span style=&quot;color: rgb(56, 58, 66);&quot;&gt;&amp;nbsp; &amp;nbsp; &amp;nbsp; &amp;nbsp; &lt;/span&gt;&lt;span style=&quot;color: rgb(166, 38, 164);&quot;&gt;struct&lt;/span&gt;&lt;span style=&quot;color: rgb(56, 58, 66);&quot;&gt; &lt;/span&gt;&lt;span style=&quot;color: rgb(193, 132, 1);&quot;&gt;isp_notify&lt;/span&gt;&lt;span style=&quot;color: rgb(56, 58, 66);&quot;&gt; &lt;/span&gt;&lt;span style=&quot;color: rgb(228, 86, 73);&quot;&gt;notify&lt;/span&gt;&lt;span style=&quot;color: rgb(56, 58, 66);&quot;&gt;;&lt;/span&gt;&lt;/font&gt;&lt;/div&gt;&lt;div style=&quot;&quot;&gt;&lt;font style=&quot;font-size: 11px;&quot;&gt;&lt;span style=&quot;color: rgb(56, 58, 66);&quot;&gt;&amp;nbsp; &amp;nbsp; &amp;nbsp; &amp;nbsp; &lt;/span&gt;&lt;span style=&quot;color: rgb(166, 38, 164);&quot;&gt;struct&lt;/span&gt;&lt;span style=&quot;color: rgb(56, 58, 66);&quot;&gt; &lt;/span&gt;&lt;span style=&quot;color: rgb(193, 132, 1);&quot;&gt;v4l2_ctrl_handler&lt;/span&gt;&lt;span style=&quot;color: rgb(56, 58, 66);&quot;&gt; &lt;/span&gt;&lt;span style=&quot;color: rgb(228, 86, 73);&quot;&gt;ctrl_handler&lt;/span&gt;&lt;span style=&quot;color: rgb(56, 58, 66);&quot;&gt;;&lt;/span&gt;&lt;/font&gt;&lt;/div&gt;&lt;div style=&quot;&quot;&gt;&lt;font style=&quot;font-size: 11px;&quot;&gt;&lt;span style=&quot;color: rgb(56, 58, 66);&quot;&gt;&amp;nbsp; &amp;nbsp; &amp;nbsp; &amp;nbsp; &lt;/span&gt;&lt;span style=&quot;color: rgb(166, 38, 164);&quot;&gt;struct&lt;/span&gt;&lt;span style=&quot;color: rgb(56, 58, 66);&quot;&gt; &lt;/span&gt;&lt;span style=&quot;color: rgb(193, 132, 1);&quot;&gt;isp_statis&lt;/span&gt;&lt;span style=&quot;color: rgb(56, 58, 66);&quot;&gt; &lt;/span&gt;&lt;span style=&quot;color: rgb(228, 86, 73);&quot;&gt;statis&lt;/span&gt;&lt;span style=&quot;color: rgb(56, 58, 66);&quot;&gt;;&lt;/span&gt;&lt;/font&gt;&lt;/div&gt;&lt;div style=&quot;&quot;&gt;&lt;font style=&quot;font-size: 11px;&quot;&gt;&lt;span style=&quot;color: rgb(56, 58, 66);&quot;&gt;&amp;nbsp; &amp;nbsp; &amp;nbsp; &amp;nbsp; &lt;/span&gt;&lt;span style=&quot;color: rgb(166, 38, 164);&quot;&gt;struct&lt;/span&gt;&lt;span style=&quot;color: rgb(56, 58, 66);&quot;&gt; &lt;/span&gt;&lt;span style=&quot;color: rgb(193, 132, 1);&quot;&gt;isp_iq&lt;/span&gt;&lt;span style=&quot;color: rgb(56, 58, 66);&quot;&gt; &lt;/span&gt;&lt;span style=&quot;color: rgb(228, 86, 73);&quot;&gt;iq&lt;/span&gt;&lt;span style=&quot;color: rgb(56, 58, 66);&quot;&gt;;&lt;/span&gt;&lt;/font&gt;&lt;/div&gt;&lt;font style=&quot;font-size: 11px;&quot;&gt;&lt;br&gt;&lt;/font&gt;&lt;div style=&quot;&quot;&gt;&lt;font style=&quot;font-size: 11px;&quot;&gt;&lt;span style=&quot;color: rgb(56, 58, 66);&quot;&gt;&amp;nbsp; &amp;nbsp; &amp;nbsp; &amp;nbsp; &lt;/span&gt;&lt;span style=&quot;color: rgb(166, 38, 164);&quot;&gt;int&lt;/span&gt;&lt;span style=&quot;color: rgb(56, 58, 66);&quot;&gt; &lt;/span&gt;&lt;span style=&quot;color: rgb(228, 86, 73);&quot;&gt;initialized&lt;/span&gt;&lt;span style=&quot;color: rgb(56, 58, 66);&quot;&gt;:&lt;/span&gt;&lt;span style=&quot;color: rgb(152, 104, 1);&quot;&gt;1&lt;/span&gt;&lt;span style=&quot;color: rgb(56, 58, 66);&quot;&gt;;&lt;/span&gt;&lt;/font&gt;&lt;/div&gt;&lt;div style=&quot;&quot;&gt;&lt;font style=&quot;font-size: 11px;&quot;&gt;&lt;span style=&quot;color: rgb(56, 58, 66);&quot;&gt;&amp;nbsp; &amp;nbsp; &amp;nbsp; &amp;nbsp; &lt;/span&gt;&lt;span style=&quot;color: rgb(166, 38, 164);&quot;&gt;int&lt;/span&gt;&lt;span style=&quot;color: rgb(56, 58, 66);&quot;&gt; &lt;/span&gt;&lt;span style=&quot;color: rgb(228, 86, 73);&quot;&gt;running&lt;/span&gt;&lt;span style=&quot;color: rgb(56, 58, 66);&quot;&gt;:&lt;/span&gt;&lt;span style=&quot;color: rgb(152, 104, 1);&quot;&gt;1&lt;/span&gt;&lt;span style=&quot;color: rgb(56, 58, 66);&quot;&gt;;&lt;/span&gt;&lt;/font&gt;&lt;/div&gt;&lt;div style=&quot;&quot;&gt;&lt;span style=&quot;color: rgb(56, 58, 66);&quot;&gt;&lt;font style=&quot;font-size: 11px;&quot;&gt;};&lt;/font&gt;&lt;/span&gt;&lt;/div&gt;&lt;/div&gt;" style="text;whiteSpace=wrap;html=1;" parent="1" vertex="1">
          <mxGeometry x="610" y="-440" width="290" height="210" as="geometry" />
        </mxCell>
        <mxCell id="zwHW3op6i-iEvnCv9LnT-18" value="" style="curved=1;endArrow=classic;html=1;rounded=0;exitX=0.96;exitY=0.385;exitDx=0;exitDy=0;exitPerimeter=0;entryX=-0.025;entryY=0.103;entryDx=0;entryDy=0;entryPerimeter=0;" parent="1" source="zwHW3op6i-iEvnCv9LnT-16" target="zwHW3op6i-iEvnCv9LnT-17" edge="1">
          <mxGeometry width="50" height="50" relative="1" as="geometry">
            <mxPoint x="560" y="-340" as="sourcePoint" />
            <mxPoint x="620" y="-420" as="targetPoint" />
            <Array as="points">
              <mxPoint x="610" y="-340" />
              <mxPoint x="560" y="-390" />
            </Array>
          </mxGeometry>
        </mxCell>
        <mxCell id="zwHW3op6i-iEvnCv9LnT-19" value="&lt;div style=&quot;color: #383a42;background-color: #f5f5f5;font-family: Consolas, &#39;Courier New&#39;, monospace;font-weight: normal;font-size: 14px;line-height: 19px;white-space: pre;&quot;&gt;&lt;div&gt;&lt;span style=&quot;color: #4078f2;&quot;&gt;isp_iq_init&lt;/span&gt;&lt;/div&gt;&lt;/div&gt;" style="text;whiteSpace=wrap;html=1;" parent="1" vertex="1">
          <mxGeometry x="810" y="140" width="90" height="30" as="geometry" />
        </mxCell>
        <mxCell id="zwHW3op6i-iEvnCv9LnT-21" value="&lt;div style=&quot;background-color: rgb(245, 245, 245); font-family: Consolas, &amp;quot;Courier New&amp;quot;, monospace; font-weight: normal; font-size: 14px; line-height: 19px; white-space: pre;&quot;&gt;&lt;div style=&quot;&quot;&gt;&lt;font style=&quot;color: rgb(255, 128, 0);&quot;&gt;core-&amp;gt;initialized = RTS_ISP_TRUE;&lt;/font&gt;&lt;/div&gt;&lt;/div&gt;" style="text;whiteSpace=wrap;html=1;" parent="1" vertex="1">
          <mxGeometry x="810" y="180" width="260" height="30" as="geometry" />
        </mxCell>
        <mxCell id="zwHW3op6i-iEvnCv9LnT-23" value="&lt;div style=&quot;color: #383a42;background-color: #f5f5f5;font-family: Consolas, &#39;Courier New&#39;, monospace;font-weight: normal;font-size: 14px;line-height: 19px;white-space: pre;&quot;&gt;&lt;div&gt;&lt;span style=&quot;color: #4078f2;&quot;&gt;isp_algo_init&lt;/span&gt;&lt;/div&gt;&lt;/div&gt;" style="text;whiteSpace=wrap;html=1;" parent="1" vertex="1">
          <mxGeometry x="480" y="190" width="110" height="30" as="geometry" />
        </mxCell>
        <mxCell id="zwHW3op6i-iEvnCv9LnT-25" value="&lt;div style=&quot;color: #383a42;background-color: #f5f5f5;font-family: Consolas, &#39;Courier New&#39;, monospace;font-weight: normal;font-size: 14px;line-height: 19px;white-space: pre;&quot;&gt;&lt;div&gt;&lt;span style=&quot;color: #4078f2;&quot;&gt;isp_sensor_init&lt;/span&gt;&lt;/div&gt;&lt;/div&gt;" style="text;whiteSpace=wrap;html=1;" parent="1" vertex="1">
          <mxGeometry x="480" y="260" width="130" height="30" as="geometry" />
        </mxCell>
        <mxCell id="zwHW3op6i-iEvnCv9LnT-32" style="edgeStyle=orthogonalEdgeStyle;rounded=0;orthogonalLoop=1;jettySize=auto;html=1;exitX=1;exitY=0.5;exitDx=0;exitDy=0;entryX=0;entryY=0.5;entryDx=0;entryDy=0;" parent="1" source="zwHW3op6i-iEvnCv9LnT-27" target="zwHW3op6i-iEvnCv9LnT-31" edge="1">
          <mxGeometry relative="1" as="geometry" />
        </mxCell>
        <mxCell id="zwHW3op6i-iEvnCv9LnT-34" style="edgeStyle=orthogonalEdgeStyle;rounded=0;orthogonalLoop=1;jettySize=auto;html=1;exitX=1;exitY=0.5;exitDx=0;exitDy=0;entryX=0;entryY=0.5;entryDx=0;entryDy=0;" parent="1" source="zwHW3op6i-iEvnCv9LnT-27" target="zwHW3op6i-iEvnCv9LnT-33" edge="1">
          <mxGeometry relative="1" as="geometry" />
        </mxCell>
        <mxCell id="zwHW3op6i-iEvnCv9LnT-27" value="&lt;div style=&quot;color: #383a42;background-color: #f5f5f5;font-family: Consolas, &#39;Courier New&#39;, monospace;font-weight: normal;font-size: 14px;line-height: 19px;white-space: pre;&quot;&gt;&lt;div&gt;&lt;span style=&quot;color: #4078f2;&quot;&gt;isp_poll_create&lt;/span&gt;&lt;/div&gt;&lt;/div&gt;" style="text;whiteSpace=wrap;html=1;" parent="1" vertex="1">
          <mxGeometry x="480" y="330" width="130" height="30" as="geometry" />
        </mxCell>
        <mxCell id="zwHW3op6i-iEvnCv9LnT-29" value="&lt;div style=&quot;color: #383a42;background-color: #f5f5f5;font-family: Consolas, &#39;Courier New&#39;, monospace;font-weight: normal;font-size: 14px;line-height: 19px;white-space: pre;&quot;&gt;&lt;div&gt;&lt;span style=&quot;color: #4078f2;&quot;&gt;isp_top_poll_add&lt;/span&gt;&lt;/div&gt;&lt;/div&gt;" style="text;whiteSpace=wrap;html=1;" parent="1" vertex="1">
          <mxGeometry x="480" y="400" width="130" height="30" as="geometry" />
        </mxCell>
        <mxCell id="zwHW3op6i-iEvnCv9LnT-31" value="&lt;div style=&quot;background-color: rgb(245, 245, 245); font-family: Consolas, &amp;quot;Courier New&amp;quot;, monospace; font-weight: normal; font-size: 14px; line-height: 19px; white-space: pre;&quot;&gt;&lt;div style=&quot;&quot;&gt;&lt;span&gt;&lt;font style=&quot;color: rgb(0, 204, 0);&quot;&gt;epoll_create1&lt;/font&gt;&lt;/span&gt;&lt;/div&gt;&lt;/div&gt;" style="text;whiteSpace=wrap;html=1;" parent="1" vertex="1">
          <mxGeometry x="650" y="300" width="110" height="30" as="geometry" />
        </mxCell>
        <mxCell id="zwHW3op6i-iEvnCv9LnT-33" value="&lt;div style=&quot;color: #383a42;background-color: #f5f5f5;font-family: Consolas, &#39;Courier New&#39;, monospace;font-weight: normal;font-size: 14px;line-height: 19px;white-space: pre;&quot;&gt;&lt;div&gt;&lt;span style=&quot;color: #4078f2;&quot;&gt;poll_wq_init&lt;/span&gt;&lt;/div&gt;&lt;/div&gt;" style="text;whiteSpace=wrap;html=1;" parent="1" vertex="1">
          <mxGeometry x="650" y="340" width="100" height="30" as="geometry" />
        </mxCell>
        <mxCell id="ht368XArrU7g4tb2RllO-8" value="" style="edgeStyle=orthogonalEdgeStyle;rounded=0;orthogonalLoop=1;jettySize=auto;html=1;" edge="1" parent="1" source="ht368XArrU7g4tb2RllO-2" target="ht368XArrU7g4tb2RllO-7">
          <mxGeometry relative="1" as="geometry" />
        </mxCell>
        <mxCell id="ht368XArrU7g4tb2RllO-28" style="edgeStyle=orthogonalEdgeStyle;rounded=0;orthogonalLoop=1;jettySize=auto;html=1;exitX=1;exitY=0.5;exitDx=0;exitDy=0;entryX=0;entryY=0.5;entryDx=0;entryDy=0;" edge="1" parent="1" source="ht368XArrU7g4tb2RllO-2" target="ht368XArrU7g4tb2RllO-26">
          <mxGeometry relative="1" as="geometry" />
        </mxCell>
        <mxCell id="ht368XArrU7g4tb2RllO-29" style="edgeStyle=orthogonalEdgeStyle;rounded=0;orthogonalLoop=1;jettySize=auto;html=1;exitX=1;exitY=0.5;exitDx=0;exitDy=0;entryX=0;entryY=0.5;entryDx=0;entryDy=0;" edge="1" parent="1" source="ht368XArrU7g4tb2RllO-2" target="ht368XArrU7g4tb2RllO-27">
          <mxGeometry relative="1" as="geometry" />
        </mxCell>
        <mxCell id="ht368XArrU7g4tb2RllO-2" value="&lt;div style=&quot;color: #383a42;background-color: #f5f5f5;font-family: Consolas, &#39;Courier New&#39;, monospace;font-weight: normal;font-size: 14px;line-height: 19px;white-space: pre;&quot;&gt;&lt;div&gt;&lt;span style=&quot;color: #4078f2;&quot;&gt;register_sensor_iq&lt;/span&gt;&lt;/div&gt;&lt;/div&gt;" style="text;whiteSpace=wrap;html=1;" vertex="1" parent="1">
          <mxGeometry x="180" y="490" width="150" height="30" as="geometry" />
        </mxCell>
        <mxCell id="ht368XArrU7g4tb2RllO-5" style="edgeStyle=orthogonalEdgeStyle;rounded=0;orthogonalLoop=1;jettySize=auto;html=1;exitX=1;exitY=0.5;exitDx=0;exitDy=0;entryX=0;entryY=0.5;entryDx=0;entryDy=0;" edge="1" parent="1" source="ht368XArrU7g4tb2RllO-4" target="XKCDAz_21dTOhUU2t3bO-1">
          <mxGeometry relative="1" as="geometry" />
        </mxCell>
        <mxCell id="ht368XArrU7g4tb2RllO-6" style="edgeStyle=orthogonalEdgeStyle;rounded=0;orthogonalLoop=1;jettySize=auto;html=1;exitX=1;exitY=0.5;exitDx=0;exitDy=0;entryX=0;entryY=0.5;entryDx=0;entryDy=0;" edge="1" parent="1" source="ht368XArrU7g4tb2RllO-4" target="ht368XArrU7g4tb2RllO-2">
          <mxGeometry relative="1" as="geometry" />
        </mxCell>
        <mxCell id="ht368XArrU7g4tb2RllO-40" style="edgeStyle=orthogonalEdgeStyle;rounded=0;orthogonalLoop=1;jettySize=auto;html=1;exitX=1;exitY=0.5;exitDx=0;exitDy=0;entryX=0;entryY=0.5;entryDx=0;entryDy=0;" edge="1" parent="1" source="ht368XArrU7g4tb2RllO-4" target="ht368XArrU7g4tb2RllO-39">
          <mxGeometry relative="1" as="geometry" />
        </mxCell>
        <mxCell id="ht368XArrU7g4tb2RllO-41" style="edgeStyle=orthogonalEdgeStyle;rounded=0;orthogonalLoop=1;jettySize=auto;html=1;exitX=1;exitY=0.5;exitDx=0;exitDy=0;entryX=0;entryY=0.5;entryDx=0;entryDy=0;" edge="1" parent="1" source="ht368XArrU7g4tb2RllO-4" target="ht368XArrU7g4tb2RllO-38">
          <mxGeometry relative="1" as="geometry" />
        </mxCell>
        <mxCell id="ht368XArrU7g4tb2RllO-4" value="&lt;div style=&quot;color: rgb(56, 58, 66); background-color: rgb(245, 245, 245); font-family: Consolas, &amp;quot;Courier New&amp;quot;, monospace; font-weight: normal; font-size: 14px; line-height: 19px; white-space: pre;&quot;&gt;&lt;div&gt;&lt;span style=&quot;color: rgb(64, 120, 242);&quot;&gt;main&lt;/span&gt;&lt;/div&gt;&lt;/div&gt;" style="text;whiteSpace=wrap;html=1;" vertex="1" parent="1">
          <mxGeometry x="50" y="490" width="40" height="30" as="geometry" />
        </mxCell>
        <mxCell id="ht368XArrU7g4tb2RllO-10" value="" style="edgeStyle=orthogonalEdgeStyle;rounded=0;orthogonalLoop=1;jettySize=auto;html=1;" edge="1" parent="1" source="ht368XArrU7g4tb2RllO-7" target="ht368XArrU7g4tb2RllO-9">
          <mxGeometry relative="1" as="geometry" />
        </mxCell>
        <mxCell id="ht368XArrU7g4tb2RllO-7" value="&lt;div style=&quot;color: #383a42;background-color: #f5f5f5;font-family: Consolas, &#39;Courier New&#39;, monospace;font-weight: normal;font-size: 14px;line-height: 19px;white-space: pre;&quot;&gt;&lt;div&gt;&lt;span style=&quot;color: #4078f2;&quot;&gt;rts_av_isp_register_sensor&lt;/span&gt;&lt;/div&gt;&lt;/div&gt;" style="text;whiteSpace=wrap;html=1;" vertex="1" parent="1">
          <mxGeometry x="370" y="490" width="210" height="30" as="geometry" />
        </mxCell>
        <mxCell id="ht368XArrU7g4tb2RllO-12" value="" style="edgeStyle=orthogonalEdgeStyle;rounded=0;orthogonalLoop=1;jettySize=auto;html=1;" edge="1" parent="1" source="ht368XArrU7g4tb2RllO-9" target="ht368XArrU7g4tb2RllO-11">
          <mxGeometry relative="1" as="geometry" />
        </mxCell>
        <mxCell id="ht368XArrU7g4tb2RllO-9" value="&lt;div style=&quot;color: #383a42;background-color: #f5f5f5;font-family: Consolas, &#39;Courier New&#39;, monospace;font-weight: normal;font-size: 14px;line-height: 19px;white-space: pre;&quot;&gt;&lt;div&gt;&lt;span style=&quot;color: #4078f2;&quot;&gt;isp_top_register_sensor&lt;/span&gt;&lt;/div&gt;&lt;/div&gt;" style="text;whiteSpace=wrap;html=1;" vertex="1" parent="1">
          <mxGeometry x="617" y="490" width="183" height="30" as="geometry" />
        </mxCell>
        <mxCell id="ht368XArrU7g4tb2RllO-16" style="edgeStyle=orthogonalEdgeStyle;rounded=0;orthogonalLoop=1;jettySize=auto;html=1;exitX=1;exitY=0.5;exitDx=0;exitDy=0;entryX=0;entryY=0.5;entryDx=0;entryDy=0;" edge="1" parent="1" source="ht368XArrU7g4tb2RllO-11" target="ht368XArrU7g4tb2RllO-13">
          <mxGeometry relative="1" as="geometry" />
        </mxCell>
        <mxCell id="ht368XArrU7g4tb2RllO-17" style="edgeStyle=orthogonalEdgeStyle;rounded=0;orthogonalLoop=1;jettySize=auto;html=1;exitX=1;exitY=0.5;exitDx=0;exitDy=0;entryX=0;entryY=0.5;entryDx=0;entryDy=0;" edge="1" parent="1" source="ht368XArrU7g4tb2RllO-11" target="ht368XArrU7g4tb2RllO-14">
          <mxGeometry relative="1" as="geometry" />
        </mxCell>
        <mxCell id="ht368XArrU7g4tb2RllO-18" style="edgeStyle=orthogonalEdgeStyle;rounded=0;orthogonalLoop=1;jettySize=auto;html=1;exitX=1;exitY=0.5;exitDx=0;exitDy=0;entryX=0;entryY=0.5;entryDx=0;entryDy=0;" edge="1" parent="1" source="ht368XArrU7g4tb2RllO-11" target="ht368XArrU7g4tb2RllO-15">
          <mxGeometry relative="1" as="geometry" />
        </mxCell>
        <mxCell id="ht368XArrU7g4tb2RllO-11" value="&lt;div style=&quot;color: #383a42;background-color: #f5f5f5;font-family: Consolas, &#39;Courier New&#39;, monospace;font-weight: normal;font-size: 14px;line-height: 19px;white-space: pre;&quot;&gt;&lt;div&gt;&lt;span style=&quot;color: #4078f2;&quot;&gt;isp_sensor_register&lt;/span&gt;&lt;/div&gt;&lt;/div&gt;" style="text;whiteSpace=wrap;html=1;" vertex="1" parent="1">
          <mxGeometry x="840" y="490" width="150" height="30" as="geometry" />
        </mxCell>
        <mxCell id="ht368XArrU7g4tb2RllO-13" value="&lt;div style=&quot;color: #383a42;background-color: #f5f5f5;font-family: Consolas, &#39;Courier New&#39;, monospace;font-weight: normal;font-size: 14px;line-height: 19px;white-space: pre;&quot;&gt;&lt;div&gt;&lt;span style=&quot;color: #4078f2;&quot;&gt;sensor_check&lt;/span&gt;&lt;/div&gt;&lt;/div&gt;" style="text;whiteSpace=wrap;html=1;" vertex="1" parent="1">
          <mxGeometry x="1030" y="420" width="100" height="30" as="geometry" />
        </mxCell>
        <mxCell id="ht368XArrU7g4tb2RllO-14" value="&lt;div style=&quot;color: #383a42;background-color: #f5f5f5;font-family: Consolas, &#39;Courier New&#39;, monospace;font-weight: normal;font-size: 14px;line-height: 19px;white-space: pre;&quot;&gt;&lt;div&gt;&lt;span style=&quot;color: #4078f2;&quot;&gt;sensor_find_sensor_slot&lt;/span&gt;&lt;/div&gt;&lt;/div&gt;" style="text;whiteSpace=wrap;html=1;" vertex="1" parent="1">
          <mxGeometry x="1030" y="460" width="190" height="30" as="geometry" />
        </mxCell>
        <mxCell id="ht368XArrU7g4tb2RllO-23" style="edgeStyle=orthogonalEdgeStyle;rounded=0;orthogonalLoop=1;jettySize=auto;html=1;exitX=1;exitY=0.5;exitDx=0;exitDy=0;entryX=0;entryY=0.5;entryDx=0;entryDy=0;" edge="1" parent="1" source="ht368XArrU7g4tb2RllO-15" target="ht368XArrU7g4tb2RllO-19">
          <mxGeometry relative="1" as="geometry" />
        </mxCell>
        <mxCell id="ht368XArrU7g4tb2RllO-24" style="edgeStyle=orthogonalEdgeStyle;rounded=0;orthogonalLoop=1;jettySize=auto;html=1;exitX=1;exitY=0.5;exitDx=0;exitDy=0;entryX=0;entryY=0.5;entryDx=0;entryDy=0;" edge="1" parent="1" source="ht368XArrU7g4tb2RllO-15" target="ht368XArrU7g4tb2RllO-20">
          <mxGeometry relative="1" as="geometry" />
        </mxCell>
        <mxCell id="ht368XArrU7g4tb2RllO-15" value="&lt;div style=&quot;color: #383a42;background-color: #f5f5f5;font-family: Consolas, &#39;Courier New&#39;, monospace;font-weight: normal;font-size: 14px;line-height: 19px;white-space: pre;&quot;&gt;&lt;div&gt;&lt;span style=&quot;color: #4078f2;&quot;&gt;isp_plugin_load&lt;/span&gt;&lt;/div&gt;&lt;/div&gt;" style="text;whiteSpace=wrap;html=1;" vertex="1" parent="1">
          <mxGeometry x="1030" y="520" width="130" height="30" as="geometry" />
        </mxCell>
        <mxCell id="ht368XArrU7g4tb2RllO-19" value="&lt;div style=&quot;background-color: rgb(245, 245, 245); font-family: Consolas, &amp;quot;Courier New&amp;quot;, monospace; font-weight: normal; font-size: 14px; line-height: 19px; white-space: pre;&quot;&gt;&lt;div style=&quot;&quot;&gt;&lt;font style=&quot;color: rgb(0, 204, 0);&quot;&gt;&lt;span&gt;dlopen&lt;/span&gt;&lt;span&gt;(&lt;/span&gt;&lt;span&gt;plugin&lt;/span&gt;&lt;span&gt;-&amp;gt;&lt;/span&gt;&lt;span&gt;path&lt;/span&gt;&lt;span&gt;, &lt;/span&gt;&lt;span&gt;RTLD_NOW&lt;/span&gt;&lt;span&gt;);&lt;/span&gt;&lt;/font&gt;&lt;/div&gt;&lt;/div&gt;" style="text;whiteSpace=wrap;html=1;" vertex="1" parent="1">
          <mxGeometry x="1210" y="500" width="250" height="30" as="geometry" />
        </mxCell>
        <mxCell id="ht368XArrU7g4tb2RllO-22" value="" style="edgeStyle=orthogonalEdgeStyle;rounded=0;orthogonalLoop=1;jettySize=auto;html=1;" edge="1" parent="1" source="ht368XArrU7g4tb2RllO-20" target="ht368XArrU7g4tb2RllO-21">
          <mxGeometry relative="1" as="geometry" />
        </mxCell>
        <mxCell id="ht368XArrU7g4tb2RllO-20" value="&lt;div style=&quot;color: #383a42;background-color: #f5f5f5;font-family: Consolas, &#39;Courier New&#39;, monospace;font-weight: normal;font-size: 14px;line-height: 19px;white-space: pre;&quot;&gt;&lt;div&gt;&lt;span style=&quot;color: #4078f2;&quot;&gt;plugin_parse_ops_handle&lt;/span&gt;&lt;/div&gt;&lt;/div&gt;" style="text;whiteSpace=wrap;html=1;" vertex="1" parent="1">
          <mxGeometry x="1210" y="550" width="190" height="30" as="geometry" />
        </mxCell>
        <mxCell id="ht368XArrU7g4tb2RllO-21" value="&lt;div style=&quot;background-color: rgb(245, 245, 245); font-family: Consolas, &amp;quot;Courier New&amp;quot;, monospace; font-weight: normal; font-size: 14px; line-height: 19px; white-space: pre;&quot;&gt;&lt;div style=&quot;&quot;&gt;&lt;font style=&quot;color: rgb(0, 204, 0);&quot;&gt;func_ptr = dlsym(plugin-&amp;gt;dl_handle, plugin-&amp;gt;func);&lt;/font&gt;&lt;/div&gt;&lt;div style=&quot;&quot;&gt;&lt;font style=&quot;color: rgb(0, 204, 0);&quot;&gt;&lt;div style=&quot;line-height: 19px;&quot;&gt;plugin-&amp;gt;ops_handle = func_ptr();&lt;/div&gt;&lt;/font&gt;&lt;/div&gt;&lt;/div&gt;" style="text;whiteSpace=wrap;html=1;" vertex="1" parent="1">
          <mxGeometry x="1430" y="540" width="390" height="50" as="geometry" />
        </mxCell>
        <mxCell id="ht368XArrU7g4tb2RllO-25" value="&lt;font style=&quot;font-size: 11px; color: rgb(153, 153, 153);&quot;&gt;cmos_sensor/目录编译出来的sensor动态库&lt;/font&gt;" style="text;html=1;align=center;verticalAlign=middle;whiteSpace=wrap;rounded=0;" vertex="1" parent="1">
          <mxGeometry x="1230" y="471" width="250" height="30" as="geometry" />
        </mxCell>
        <mxCell id="ht368XArrU7g4tb2RllO-31" value="" style="edgeStyle=orthogonalEdgeStyle;rounded=0;orthogonalLoop=1;jettySize=auto;html=1;" edge="1" parent="1" source="ht368XArrU7g4tb2RllO-26" target="ht368XArrU7g4tb2RllO-30">
          <mxGeometry relative="1" as="geometry" />
        </mxCell>
        <mxCell id="ht368XArrU7g4tb2RllO-26" value="&lt;div style=&quot;color: #383a42;background-color: #f5f5f5;font-family: Consolas, &#39;Courier New&#39;, monospace;font-weight: normal;font-size: 14px;line-height: 19px;white-space: pre;&quot;&gt;&lt;div&gt;&lt;span style=&quot;color: #4078f2;&quot;&gt;rts_av_isp_bind_sensor&lt;/span&gt;&lt;/div&gt;&lt;/div&gt;" style="text;whiteSpace=wrap;html=1;" vertex="1" parent="1">
          <mxGeometry x="370" y="591.25" width="180" height="30" as="geometry" />
        </mxCell>
        <mxCell id="ht368XArrU7g4tb2RllO-33" value="" style="edgeStyle=orthogonalEdgeStyle;rounded=0;orthogonalLoop=1;jettySize=auto;html=1;" edge="1" parent="1" source="ht368XArrU7g4tb2RllO-27" target="ht368XArrU7g4tb2RllO-32">
          <mxGeometry relative="1" as="geometry" />
        </mxCell>
        <mxCell id="ht368XArrU7g4tb2RllO-27" value="&lt;div style=&quot;color: #383a42;background-color: #f5f5f5;font-family: Consolas, &#39;Courier New&#39;, monospace;font-weight: normal;font-size: 14px;line-height: 19px;white-space: pre;&quot;&gt;&lt;div&gt;&lt;span style=&quot;color: #4078f2;&quot;&gt;rts_av_isp_register_iq&lt;/span&gt;&lt;/div&gt;&lt;/div&gt;" style="text;whiteSpace=wrap;html=1;" vertex="1" parent="1">
          <mxGeometry x="370" y="641.25" width="180" height="30" as="geometry" />
        </mxCell>
        <mxCell id="ht368XArrU7g4tb2RllO-35" value="" style="edgeStyle=orthogonalEdgeStyle;rounded=0;orthogonalLoop=1;jettySize=auto;html=1;" edge="1" parent="1" source="ht368XArrU7g4tb2RllO-30" target="ht368XArrU7g4tb2RllO-34">
          <mxGeometry relative="1" as="geometry" />
        </mxCell>
        <mxCell id="ht368XArrU7g4tb2RllO-30" value="&lt;div style=&quot;color: #383a42;background-color: #f5f5f5;font-family: Consolas, &#39;Courier New&#39;, monospace;font-weight: normal;font-size: 14px;line-height: 19px;white-space: pre;&quot;&gt;&lt;div&gt;&lt;span style=&quot;color: #4078f2;&quot;&gt;isp_top_bind_sensor&lt;/span&gt;&lt;/div&gt;&lt;/div&gt;" style="text;whiteSpace=wrap;html=1;" vertex="1" parent="1">
          <mxGeometry x="590" y="590" width="160" height="32.5" as="geometry" />
        </mxCell>
        <mxCell id="ht368XArrU7g4tb2RllO-32" value="&lt;div style=&quot;color: #383a42;background-color: #f5f5f5;font-family: Consolas, &#39;Courier New&#39;, monospace;font-weight: normal;font-size: 14px;line-height: 19px;white-space: pre;&quot;&gt;&lt;div&gt;&lt;span style=&quot;color: #4078f2;&quot;&gt;isp_top_register_iq&lt;/span&gt;&lt;/div&gt;&lt;/div&gt;" style="text;whiteSpace=wrap;html=1;" vertex="1" parent="1">
          <mxGeometry x="590" y="641.25" width="160" height="30" as="geometry" />
        </mxCell>
        <mxCell id="ht368XArrU7g4tb2RllO-37" value="" style="edgeStyle=orthogonalEdgeStyle;rounded=0;orthogonalLoop=1;jettySize=auto;html=1;" edge="1" parent="1" source="ht368XArrU7g4tb2RllO-34" target="ht368XArrU7g4tb2RllO-36">
          <mxGeometry relative="1" as="geometry" />
        </mxCell>
        <mxCell id="ht368XArrU7g4tb2RllO-34" value="&lt;div style=&quot;color: #383a42;background-color: #f5f5f5;font-family: Consolas, &#39;Courier New&#39;, monospace;font-weight: normal;font-size: 14px;line-height: 19px;white-space: pre;&quot;&gt;&lt;div&gt;&lt;span style=&quot;color: #4078f2;&quot;&gt;isp_sensor_bind&lt;/span&gt;&lt;/div&gt;&lt;/div&gt;" style="text;whiteSpace=wrap;html=1;" vertex="1" parent="1">
          <mxGeometry x="780" y="590" width="130" height="31.25" as="geometry" />
        </mxCell>
        <mxCell id="ht368XArrU7g4tb2RllO-36" value="&lt;div style=&quot;background-color: rgb(245, 245, 245); font-family: Consolas, &amp;quot;Courier New&amp;quot;, monospace; font-weight: normal; font-size: 14px; line-height: 19px; white-space: pre;&quot;&gt;&lt;div style=&quot;&quot;&gt;&lt;font style=&quot;color: rgb(255, 128, 0);&quot;&gt;&lt;span&gt;snrm&lt;/span&gt;&lt;span&gt;-&amp;gt;&lt;/span&gt;&lt;span&gt;binding&lt;/span&gt;&lt;span&gt;[&lt;/span&gt;&lt;span&gt;isp_id&lt;/span&gt;&lt;span&gt;] &lt;/span&gt;&lt;span&gt;=&lt;/span&gt;&lt;span&gt; &lt;/span&gt;&lt;span&gt;sensor_id&lt;/span&gt;&lt;span&gt;;&lt;/span&gt;&lt;/font&gt;&lt;/div&gt;&lt;/div&gt;" style="text;whiteSpace=wrap;html=1;" vertex="1" parent="1">
          <mxGeometry x="940" y="589.38" width="270" height="33.75" as="geometry" />
        </mxCell>
        <mxCell id="ht368XArrU7g4tb2RllO-43" value="" style="edgeStyle=orthogonalEdgeStyle;rounded=0;orthogonalLoop=1;jettySize=auto;html=1;" edge="1" parent="1" source="ht368XArrU7g4tb2RllO-38" target="ht368XArrU7g4tb2RllO-42">
          <mxGeometry relative="1" as="geometry" />
        </mxCell>
        <mxCell id="ht368XArrU7g4tb2RllO-38" value="&lt;div style=&quot;color: #383a42;background-color: #f5f5f5;font-family: Consolas, &#39;Courier New&#39;, monospace;font-weight: normal;font-size: 14px;line-height: 19px;white-space: pre;&quot;&gt;&lt;div&gt;&lt;span style=&quot;color: #4078f2;&quot;&gt;rts_av_isp_start&lt;/span&gt;&lt;/div&gt;&lt;/div&gt;" style="text;whiteSpace=wrap;html=1;" vertex="1" parent="1">
          <mxGeometry x="190" y="840" width="130" height="30" as="geometry" />
        </mxCell>
        <mxCell id="ht368XArrU7g4tb2RllO-39" value="&lt;div style=&quot;color: #383a42;background-color: #f5f5f5;font-family: Consolas, &#39;Courier New&#39;, monospace;font-weight: normal;font-size: 14px;line-height: 19px;white-space: pre;&quot;&gt;&lt;div&gt;&lt;span style=&quot;color: #4078f2;&quot;&gt;register_all_algos&lt;/span&gt;&lt;/div&gt;&lt;/div&gt;" style="text;whiteSpace=wrap;html=1;" vertex="1" parent="1">
          <mxGeometry x="190" y="740" width="150" height="30" as="geometry" />
        </mxCell>
        <mxCell id="ht368XArrU7g4tb2RllO-45" value="" style="edgeStyle=orthogonalEdgeStyle;rounded=0;orthogonalLoop=1;jettySize=auto;html=1;" edge="1" parent="1" source="ht368XArrU7g4tb2RllO-42" target="ht368XArrU7g4tb2RllO-44">
          <mxGeometry relative="1" as="geometry" />
        </mxCell>
        <mxCell id="ht368XArrU7g4tb2RllO-42" value="&lt;div style=&quot;color: #383a42;background-color: #f5f5f5;font-family: Consolas, &#39;Courier New&#39;, monospace;font-weight: normal;font-size: 14px;line-height: 19px;white-space: pre;&quot;&gt;&lt;div&gt;&lt;span style=&quot;color: #4078f2;&quot;&gt;isp_top_core_run&lt;/span&gt;&lt;/div&gt;&lt;/div&gt;" style="text;whiteSpace=wrap;html=1;" vertex="1" parent="1">
          <mxGeometry x="360" y="840" width="130" height="30" as="geometry" />
        </mxCell>
        <mxCell id="ht368XArrU7g4tb2RllO-44" value="&lt;div style=&quot;color: #383a42;background-color: #f5f5f5;font-family: Consolas, &#39;Courier New&#39;, monospace;font-weight: normal;font-size: 14px;line-height: 19px;white-space: pre;&quot;&gt;&lt;div&gt;&lt;span style=&quot;color: #4078f2;&quot;&gt;isp_core_start&lt;/span&gt;&lt;/div&gt;&lt;/div&gt;" style="text;whiteSpace=wrap;html=1;" vertex="1" parent="1">
          <mxGeometry x="530" y="840" width="120" height="30" as="geometry" />
        </mxCell>
        <mxCell id="ht368XArrU7g4tb2RllO-50" style="edgeStyle=orthogonalEdgeStyle;rounded=0;orthogonalLoop=1;jettySize=auto;html=1;exitX=1;exitY=0.5;exitDx=0;exitDy=0;entryX=0;entryY=0.5;entryDx=0;entryDy=0;" edge="1" parent="1" source="ht368XArrU7g4tb2RllO-46" target="ht368XArrU7g4tb2RllO-48">
          <mxGeometry relative="1" as="geometry" />
        </mxCell>
        <mxCell id="ht368XArrU7g4tb2RllO-51" style="edgeStyle=orthogonalEdgeStyle;rounded=0;orthogonalLoop=1;jettySize=auto;html=1;exitX=1;exitY=0.5;exitDx=0;exitDy=0;entryX=0;entryY=0.5;entryDx=0;entryDy=0;" edge="1" parent="1" source="ht368XArrU7g4tb2RllO-46" target="ht368XArrU7g4tb2RllO-49">
          <mxGeometry relative="1" as="geometry" />
        </mxCell>
        <mxCell id="ht368XArrU7g4tb2RllO-46" value="&lt;div style=&quot;color: #383a42;background-color: #f5f5f5;font-family: Consolas, &#39;Courier New&#39;, monospace;font-weight: normal;font-size: 14px;line-height: 19px;white-space: pre;&quot;&gt;&lt;div&gt;&lt;span style=&quot;color: #4078f2;&quot;&gt;isp_core_register_mod&lt;/span&gt;&lt;/div&gt;&lt;/div&gt;" style="text;whiteSpace=wrap;html=1;" vertex="1" parent="1">
          <mxGeometry x="1210" y="100" width="170" height="30" as="geometry" />
        </mxCell>
        <mxCell id="ht368XArrU7g4tb2RllO-48" value="&lt;div style=&quot;color: #383a42;background-color: #f5f5f5;font-family: Consolas, &#39;Courier New&#39;, monospace;font-weight: normal;font-size: 14px;line-height: 19px;white-space: pre;&quot;&gt;&lt;div&gt;&lt;span style=&quot;color: #4078f2;&quot;&gt;core_add_mod_to_hash&lt;/span&gt;&lt;/div&gt;&lt;/div&gt;" style="text;whiteSpace=wrap;html=1;" vertex="1" parent="1">
          <mxGeometry x="1420" y="60" width="170" height="30" as="geometry" />
        </mxCell>
        <mxCell id="ht368XArrU7g4tb2RllO-49" value="&lt;div style=&quot;color: #383a42;background-color: #f5f5f5;font-family: Consolas, &#39;Courier New&#39;, monospace;font-weight: normal;font-size: 14px;line-height: 19px;white-space: pre;&quot;&gt;&lt;div&gt;&lt;span style=&quot;color: #4078f2;&quot;&gt;isp_notify_add_mod&lt;/span&gt;&lt;/div&gt;&lt;/div&gt;" style="text;whiteSpace=wrap;html=1;" vertex="1" parent="1">
          <mxGeometry x="1420" y="130" width="150" height="30" as="geometry" />
        </mxCell>
        <mxCell id="ht368XArrU7g4tb2RllO-53" value="&lt;div style=&quot;color: #383a42;background-color: #f5f5f5;font-family: Consolas, &#39;Courier New&#39;, monospace;font-weight: normal;font-size: 14px;line-height: 19px;white-space: pre;&quot;&gt;&lt;div&gt;&lt;span style=&quot;color: #4078f2;&quot;&gt;core_mod_hash_table_init&lt;/span&gt;&lt;/div&gt;&lt;/div&gt;" style="text;whiteSpace=wrap;html=1;" vertex="1" parent="1">
          <mxGeometry x="820" y="-10" width="200" height="30" as="geometry" />
        </mxCell>
        <mxCell id="ht368XArrU7g4tb2RllO-54" value="&lt;div style=&quot;color: #383a42;background-color: #f5f5f5;font-family: Consolas, &#39;Courier New&#39;, monospace;font-weight: normal;font-size: 14px;line-height: 19px;white-space: pre;&quot;&gt;&lt;div&gt;&lt;span style=&quot;color: #4078f2;&quot;&gt;isp_notify_init&lt;/span&gt;&lt;/div&gt;&lt;/div&gt;" style="text;whiteSpace=wrap;html=1;" vertex="1" parent="1">
          <mxGeometry x="820" y="40" width="120" height="30" as="geometry" />
        </mxCell>
      </root>
    </mxGraphModel>
  </diagram>
</mxfile>
